<mxfile host="app.diagrams.net" modified="2023-03-13T11:44:11.659Z" agent="5.0 (Windows NT 10.0; Win64; x64) AppleWebKit/537.36 (KHTML, like Gecko) Chrome/110.0.0.0 Safari/537.36" etag="0QBn_9ToqRWqZGoWRAZn" version="21.0.6" type="github">
  <diagram name="Page-1" id="uCVn32O05i1Yzrn3YfuR">
    <mxGraphModel dx="1434" dy="756" grid="1" gridSize="10" guides="1" tooltips="1" connect="1" arrows="1" fold="1" page="1" pageScale="1" pageWidth="827" pageHeight="1169" math="0" shadow="0">
      <root>
        <mxCell id="0" />
        <mxCell id="1" parent="0" />
        <mxCell id="FcdRBvqcY3o4qL-59N1J-69" value="" style="rounded=0;whiteSpace=wrap;html=1;strokeColor=#E07A5F;fontColor=#393C56;fillColor=none;" vertex="1" parent="1">
          <mxGeometry x="20" y="10" width="1060" height="620" as="geometry" />
        </mxCell>
        <mxCell id="FcdRBvqcY3o4qL-59N1J-1" value="PDM_GUI" style="rounded=0;whiteSpace=wrap;html=1;labelBackgroundColor=none;fillColor=#F2CC8F;strokeColor=#E07A5F;fontColor=#393C56;" vertex="1" parent="1">
          <mxGeometry x="190" y="115" width="110" height="50" as="geometry" />
        </mxCell>
        <mxCell id="FcdRBvqcY3o4qL-59N1J-2" value="PDM_View" style="rounded=0;whiteSpace=wrap;html=1;labelBackgroundColor=none;fillColor=#F2CC8F;strokeColor=#E07A5F;fontColor=#393C56;" vertex="1" parent="1">
          <mxGeometry x="340" y="174" width="110" height="50" as="geometry" />
        </mxCell>
        <mxCell id="FcdRBvqcY3o4qL-59N1J-3" value="" style="endArrow=none;dashed=1;html=1;dashPattern=1 3;strokeWidth=2;rounded=0;exitX=0.5;exitY=1;exitDx=0;exitDy=0;startArrow=none;labelBackgroundColor=none;strokeColor=#E07A5F;fontColor=default;" edge="1" parent="1" source="FcdRBvqcY3o4qL-59N1J-10">
          <mxGeometry width="50" height="50" relative="1" as="geometry">
            <mxPoint x="540" y="285" as="sourcePoint" />
            <mxPoint x="245" y="585" as="targetPoint" />
          </mxGeometry>
        </mxCell>
        <mxCell id="FcdRBvqcY3o4qL-59N1J-4" value="User" style="shape=umlActor;verticalLabelPosition=bottom;verticalAlign=top;html=1;outlineConnect=0;labelBackgroundColor=none;fillColor=#F2CC8F;strokeColor=#E07A5F;fontColor=#393C56;" vertex="1" parent="1">
          <mxGeometry x="30" y="40" width="30" height="60" as="geometry" />
        </mxCell>
        <mxCell id="FcdRBvqcY3o4qL-59N1J-6" value="" style="endArrow=none;dashed=1;html=1;dashPattern=1 3;strokeWidth=2;rounded=0;startArrow=none;labelBackgroundColor=none;strokeColor=#E07A5F;fontColor=default;" edge="1" parent="1" source="FcdRBvqcY3o4qL-59N1J-7">
          <mxGeometry width="50" height="50" relative="1" as="geometry">
            <mxPoint x="45" y="120" as="sourcePoint" />
            <mxPoint x="45" y="520" as="targetPoint" />
          </mxGeometry>
        </mxCell>
        <mxCell id="FcdRBvqcY3o4qL-59N1J-8" style="edgeStyle=orthogonalEdgeStyle;rounded=0;orthogonalLoop=1;jettySize=auto;html=1;labelBackgroundColor=none;strokeColor=#E07A5F;fontColor=default;" edge="1" parent="1" source="FcdRBvqcY3o4qL-59N1J-7">
          <mxGeometry relative="1" as="geometry">
            <mxPoint x="190" y="140" as="targetPoint" />
            <Array as="points">
              <mxPoint x="100" y="140" />
              <mxPoint x="100" y="140" />
            </Array>
          </mxGeometry>
        </mxCell>
        <mxCell id="FcdRBvqcY3o4qL-59N1J-9" value="Runs Program&lt;br&gt;Instantiante&amp;nbsp;" style="edgeLabel;html=1;align=center;verticalAlign=middle;resizable=0;points=[];labelBackgroundColor=none;fontColor=#393C56;" vertex="1" connectable="0" parent="FcdRBvqcY3o4qL-59N1J-8">
          <mxGeometry x="-0.2429" y="-1" relative="1" as="geometry">
            <mxPoint x="17" y="-1" as="offset" />
          </mxGeometry>
        </mxCell>
        <mxCell id="FcdRBvqcY3o4qL-59N1J-11" value="" style="endArrow=none;dashed=1;html=1;dashPattern=1 3;strokeWidth=2;rounded=0;exitX=0.5;exitY=1;exitDx=0;exitDy=0;labelBackgroundColor=none;strokeColor=#E07A5F;fontColor=default;" edge="1" parent="1" source="FcdRBvqcY3o4qL-59N1J-1" target="FcdRBvqcY3o4qL-59N1J-10">
          <mxGeometry width="50" height="50" relative="1" as="geometry">
            <mxPoint x="245" y="165" as="sourcePoint" />
            <mxPoint x="245" y="585" as="targetPoint" />
          </mxGeometry>
        </mxCell>
        <mxCell id="FcdRBvqcY3o4qL-59N1J-10" value="" style="rounded=0;whiteSpace=wrap;html=1;labelBackgroundColor=none;fillColor=#F2CC8F;strokeColor=#E07A5F;fontColor=#393C56;" vertex="1" parent="1">
          <mxGeometry x="240" y="165" width="10" height="445" as="geometry" />
        </mxCell>
        <mxCell id="FcdRBvqcY3o4qL-59N1J-15" value="" style="endArrow=classic;html=1;rounded=0;entryX=-0.2;entryY=0.076;entryDx=0;entryDy=0;entryPerimeter=0;labelBackgroundColor=none;strokeColor=#E07A5F;fontColor=default;" edge="1" parent="1" target="FcdRBvqcY3o4qL-59N1J-10">
          <mxGeometry width="50" height="50" relative="1" as="geometry">
            <mxPoint x="53" y="200" as="sourcePoint" />
            <mxPoint x="239" y="204.96000000000004" as="targetPoint" />
          </mxGeometry>
        </mxCell>
        <mxCell id="FcdRBvqcY3o4qL-59N1J-16" value="Taps PDM Button" style="edgeLabel;html=1;align=center;verticalAlign=middle;resizable=0;points=[];labelBackgroundColor=none;fontColor=#393C56;" vertex="1" connectable="0" parent="FcdRBvqcY3o4qL-59N1J-15">
          <mxGeometry x="0.215" y="2" relative="1" as="geometry">
            <mxPoint x="-36" y="-4" as="offset" />
          </mxGeometry>
        </mxCell>
        <mxCell id="FcdRBvqcY3o4qL-59N1J-17" value="" style="endArrow=classic;html=1;rounded=0;exitX=1.2;exitY=0.072;exitDx=0;exitDy=0;exitPerimeter=0;entryX=0;entryY=0.5;entryDx=0;entryDy=0;labelBackgroundColor=none;strokeColor=#E07A5F;fontColor=default;" edge="1" parent="1" source="FcdRBvqcY3o4qL-59N1J-10" target="FcdRBvqcY3o4qL-59N1J-2">
          <mxGeometry width="50" height="50" relative="1" as="geometry">
            <mxPoint x="390" y="310" as="sourcePoint" />
            <mxPoint x="440" y="260" as="targetPoint" />
          </mxGeometry>
        </mxCell>
        <mxCell id="FcdRBvqcY3o4qL-59N1J-18" value="Visible = True" style="edgeLabel;html=1;align=center;verticalAlign=middle;resizable=0;points=[];labelBackgroundColor=none;fontColor=#393C56;" vertex="1" connectable="0" parent="FcdRBvqcY3o4qL-59N1J-17">
          <mxGeometry x="-0.267" y="-1" relative="1" as="geometry">
            <mxPoint x="6" y="-6" as="offset" />
          </mxGeometry>
        </mxCell>
        <mxCell id="FcdRBvqcY3o4qL-59N1J-19" value="" style="endArrow=none;dashed=1;html=1;dashPattern=1 3;strokeWidth=2;rounded=0;labelBackgroundColor=none;strokeColor=#E07A5F;fontColor=default;entryX=0.358;entryY=0.998;entryDx=0;entryDy=0;entryPerimeter=0;" edge="1" parent="1" target="FcdRBvqcY3o4qL-59N1J-69">
          <mxGeometry width="50" height="50" relative="1" as="geometry">
            <mxPoint x="395" y="224" as="sourcePoint" />
            <mxPoint x="400" y="630" as="targetPoint" />
          </mxGeometry>
        </mxCell>
        <mxCell id="FcdRBvqcY3o4qL-59N1J-20" value="" style="rounded=0;whiteSpace=wrap;html=1;labelBackgroundColor=none;fillColor=#F2CC8F;strokeColor=#E07A5F;fontColor=#393C56;" vertex="1" parent="1">
          <mxGeometry x="390" y="224" width="10" height="126" as="geometry" />
        </mxCell>
        <mxCell id="FcdRBvqcY3o4qL-59N1J-21" value="" style="endArrow=none;dashed=1;html=1;dashPattern=1 3;strokeWidth=2;rounded=0;labelBackgroundColor=none;strokeColor=#E07A5F;fontColor=default;" edge="1" parent="1" target="FcdRBvqcY3o4qL-59N1J-7">
          <mxGeometry width="50" height="50" relative="1" as="geometry">
            <mxPoint x="45" y="120" as="sourcePoint" />
            <mxPoint x="45" y="520" as="targetPoint" />
          </mxGeometry>
        </mxCell>
        <mxCell id="FcdRBvqcY3o4qL-59N1J-7" value="" style="rounded=0;whiteSpace=wrap;html=1;labelBackgroundColor=none;fillColor=#F2CC8F;strokeColor=#E07A5F;fontColor=#393C56;" vertex="1" parent="1">
          <mxGeometry x="40" y="120" width="10" height="310" as="geometry" />
        </mxCell>
        <mxCell id="FcdRBvqcY3o4qL-59N1J-22" value="" style="endArrow=classic;html=1;rounded=0;exitX=1;exitY=0.39;exitDx=0;exitDy=0;exitPerimeter=0;entryX=-0.3;entryY=0.116;entryDx=0;entryDy=0;entryPerimeter=0;labelBackgroundColor=none;strokeColor=#E07A5F;fontColor=default;" edge="1" parent="1" source="FcdRBvqcY3o4qL-59N1J-7" target="FcdRBvqcY3o4qL-59N1J-20">
          <mxGeometry width="50" height="50" relative="1" as="geometry">
            <mxPoint x="390" y="310" as="sourcePoint" />
            <mxPoint x="440" y="260" as="targetPoint" />
          </mxGeometry>
        </mxCell>
        <mxCell id="FcdRBvqcY3o4qL-59N1J-23" value="Enters patientNumber, dfName" style="edgeLabel;html=1;align=center;verticalAlign=middle;resizable=0;points=[];labelBackgroundColor=none;fontColor=#393C56;" vertex="1" connectable="0" parent="FcdRBvqcY3o4qL-59N1J-22">
          <mxGeometry x="-0.6235" y="3" relative="1" as="geometry">
            <mxPoint x="26" y="-3" as="offset" />
          </mxGeometry>
        </mxCell>
        <mxCell id="FcdRBvqcY3o4qL-59N1J-24" value="PatientDataManager" style="rounded=0;whiteSpace=wrap;html=1;labelBackgroundColor=none;fillColor=#F2CC8F;strokeColor=#E07A5F;fontColor=#393C56;" vertex="1" parent="1">
          <mxGeometry x="480" y="224" width="110" height="50" as="geometry" />
        </mxCell>
        <mxCell id="FcdRBvqcY3o4qL-59N1J-26" value="" style="rounded=0;whiteSpace=wrap;html=1;labelBackgroundColor=none;fillColor=#F2CC8F;strokeColor=#E07A5F;fontColor=#393C56;" vertex="1" parent="1">
          <mxGeometry x="40" y="120" width="10" height="480" as="geometry" />
        </mxCell>
        <mxCell id="FcdRBvqcY3o4qL-59N1J-27" value="" style="endArrow=none;dashed=1;html=1;dashPattern=1 3;strokeWidth=2;rounded=0;startArrow=none;labelBackgroundColor=none;strokeColor=#E07A5F;fontColor=default;" edge="1" parent="1">
          <mxGeometry width="50" height="50" relative="1" as="geometry">
            <mxPoint x="535" y="584" as="sourcePoint" />
            <mxPoint x="535" y="630" as="targetPoint" />
          </mxGeometry>
        </mxCell>
        <mxCell id="FcdRBvqcY3o4qL-59N1J-28" value="" style="rounded=0;whiteSpace=wrap;html=1;labelBackgroundColor=none;fillColor=#F2CC8F;strokeColor=#E07A5F;fontColor=#393C56;" vertex="1" parent="1">
          <mxGeometry x="530" y="274" width="10" height="346" as="geometry" />
        </mxCell>
        <mxCell id="FcdRBvqcY3o4qL-59N1J-29" value="" style="endArrow=classic;html=1;rounded=0;entryX=-0.1;entryY=0.087;entryDx=0;entryDy=0;entryPerimeter=0;labelBackgroundColor=none;strokeColor=#E07A5F;fontColor=default;" edge="1" parent="1">
          <mxGeometry width="50" height="50" relative="1" as="geometry">
            <mxPoint x="400" y="280" as="sourcePoint" />
            <mxPoint x="529" y="280.97" as="targetPoint" />
          </mxGeometry>
        </mxCell>
        <mxCell id="FcdRBvqcY3o4qL-59N1J-30" value="Instantiate" style="edgeLabel;html=1;align=center;verticalAlign=middle;resizable=0;points=[];labelBackgroundColor=none;fontColor=#393C56;" vertex="1" connectable="0" parent="FcdRBvqcY3o4qL-59N1J-29">
          <mxGeometry x="0.2404" relative="1" as="geometry">
            <mxPoint x="-34" y="-7" as="offset" />
          </mxGeometry>
        </mxCell>
        <mxCell id="FcdRBvqcY3o4qL-59N1J-31" value="" style="endArrow=classic;html=1;rounded=0;entryX=-0.2;entryY=0.142;entryDx=0;entryDy=0;entryPerimeter=0;labelBackgroundColor=none;strokeColor=#E07A5F;fontColor=default;" edge="1" parent="1" target="FcdRBvqcY3o4qL-59N1J-28">
          <mxGeometry width="50" height="50" relative="1" as="geometry">
            <mxPoint x="50" y="320" as="sourcePoint" />
            <mxPoint x="440" y="260" as="targetPoint" />
          </mxGeometry>
        </mxCell>
        <mxCell id="FcdRBvqcY3o4qL-59N1J-32" value="Taps Load Button" style="edgeLabel;html=1;align=center;verticalAlign=middle;resizable=0;points=[];labelBackgroundColor=none;fontColor=#393C56;" vertex="1" connectable="0" parent="FcdRBvqcY3o4qL-59N1J-31">
          <mxGeometry x="-0.7987" y="1" relative="1" as="geometry">
            <mxPoint x="29" y="-5" as="offset" />
          </mxGeometry>
        </mxCell>
        <mxCell id="FcdRBvqcY3o4qL-59N1J-33" value="" style="endArrow=classic;html=1;rounded=0;exitX=1;exitY=0.25;exitDx=0;exitDy=0;labelBackgroundColor=none;strokeColor=#E07A5F;fontColor=default;" edge="1" parent="1">
          <mxGeometry width="50" height="50" relative="1" as="geometry">
            <mxPoint x="540" y="330.4999999999998" as="sourcePoint" />
            <mxPoint x="630" y="330" as="targetPoint" />
          </mxGeometry>
        </mxCell>
        <mxCell id="FcdRBvqcY3o4qL-59N1J-35" value="Instantiates" style="edgeLabel;html=1;align=center;verticalAlign=middle;resizable=0;points=[];labelBackgroundColor=none;fontColor=#393C56;" vertex="1" connectable="0" parent="FcdRBvqcY3o4qL-59N1J-33">
          <mxGeometry x="-0.2666" relative="1" as="geometry">
            <mxPoint x="10" y="-7" as="offset" />
          </mxGeometry>
        </mxCell>
        <mxCell id="FcdRBvqcY3o4qL-59N1J-34" value="Patient" style="rounded=0;whiteSpace=wrap;html=1;labelBackgroundColor=none;fillColor=#F2CC8F;strokeColor=#E07A5F;fontColor=#393C56;" vertex="1" parent="1">
          <mxGeometry x="630" y="309" width="110" height="50" as="geometry" />
        </mxCell>
        <mxCell id="FcdRBvqcY3o4qL-59N1J-36" value="" style="endArrow=classic;html=1;rounded=0;exitX=1.5;exitY=0.706;exitDx=0;exitDy=0;exitPerimeter=0;entryX=0.1;entryY=0.656;entryDx=0;entryDy=0;entryPerimeter=0;labelBackgroundColor=none;strokeColor=#E07A5F;fontColor=default;" edge="1" parent="1" source="FcdRBvqcY3o4qL-59N1J-26" target="FcdRBvqcY3o4qL-59N1J-10">
          <mxGeometry width="50" height="50" relative="1" as="geometry">
            <mxPoint x="390" y="310" as="sourcePoint" />
            <mxPoint x="440" y="260" as="targetPoint" />
          </mxGeometry>
        </mxCell>
        <mxCell id="FcdRBvqcY3o4qL-59N1J-37" value="Taps Plot Tool Button" style="edgeLabel;html=1;align=center;verticalAlign=middle;resizable=0;points=[];labelBackgroundColor=none;fontColor=#393C56;" vertex="1" connectable="0" parent="FcdRBvqcY3o4qL-59N1J-36">
          <mxGeometry x="0.4868" y="3" relative="1" as="geometry">
            <mxPoint x="-59" y="-4" as="offset" />
          </mxGeometry>
        </mxCell>
        <mxCell id="FcdRBvqcY3o4qL-59N1J-38" value="" style="endArrow=classic;html=1;rounded=0;entryX=0;entryY=0.932;entryDx=0;entryDy=0;entryPerimeter=0;labelBackgroundColor=none;strokeColor=#E07A5F;fontColor=default;" edge="1" parent="1" target="FcdRBvqcY3o4qL-59N1J-20">
          <mxGeometry width="50" height="50" relative="1" as="geometry">
            <mxPoint x="250" y="341" as="sourcePoint" />
            <mxPoint x="440" y="260" as="targetPoint" />
          </mxGeometry>
        </mxCell>
        <mxCell id="FcdRBvqcY3o4qL-59N1J-39" value="Visibility = False" style="edgeLabel;html=1;align=center;verticalAlign=middle;resizable=0;points=[];labelBackgroundColor=none;fontColor=#393C56;" vertex="1" connectable="0" parent="FcdRBvqcY3o4qL-59N1J-38">
          <mxGeometry x="0.4853" y="-2" relative="1" as="geometry">
            <mxPoint x="-40" y="-9" as="offset" />
          </mxGeometry>
        </mxCell>
        <mxCell id="FcdRBvqcY3o4qL-59N1J-40" value="" style="endArrow=none;dashed=1;html=1;dashPattern=1 3;strokeWidth=2;rounded=0;startArrow=none;exitX=0.5;exitY=1;exitDx=0;exitDy=0;labelBackgroundColor=none;strokeColor=#E07A5F;fontColor=default;entryX=0.627;entryY=0.998;entryDx=0;entryDy=0;entryPerimeter=0;" edge="1" parent="1" source="FcdRBvqcY3o4qL-59N1J-41" target="FcdRBvqcY3o4qL-59N1J-69">
          <mxGeometry width="50" height="50" relative="1" as="geometry">
            <mxPoint x="685" y="669" as="sourcePoint" />
            <mxPoint x="685" y="630" as="targetPoint" />
          </mxGeometry>
        </mxCell>
        <mxCell id="FcdRBvqcY3o4qL-59N1J-41" value="" style="rounded=0;whiteSpace=wrap;html=1;labelBackgroundColor=none;fillColor=#F2CC8F;strokeColor=#E07A5F;fontColor=#393C56;" vertex="1" parent="1">
          <mxGeometry x="680" y="359" width="10" height="61" as="geometry" />
        </mxCell>
        <mxCell id="FcdRBvqcY3o4qL-59N1J-43" value="" style="endArrow=classic;html=1;rounded=0;entryX=1.5;entryY=0.171;entryDx=0;entryDy=0;entryPerimeter=0;labelBackgroundColor=none;strokeColor=#E07A5F;fontColor=default;" edge="1" parent="1">
          <mxGeometry width="50" height="50" relative="1" as="geometry">
            <mxPoint x="690" y="383" as="sourcePoint" />
            <mxPoint x="690" y="412.01" as="targetPoint" />
            <Array as="points">
              <mxPoint x="715" y="383" />
              <mxPoint x="715" y="412" />
            </Array>
          </mxGeometry>
        </mxCell>
        <mxCell id="FcdRBvqcY3o4qL-59N1J-44" value="set(patientNumber,&lt;br&gt;&amp;nbsp;dfName)" style="edgeLabel;html=1;align=center;verticalAlign=middle;resizable=0;points=[];labelBackgroundColor=none;fontColor=#393C56;" vertex="1" connectable="0" parent="FcdRBvqcY3o4qL-59N1J-43">
          <mxGeometry x="-0.2236" y="1" relative="1" as="geometry">
            <mxPoint x="54" y="11" as="offset" />
          </mxGeometry>
        </mxCell>
        <mxCell id="FcdRBvqcY3o4qL-59N1J-45" value="Plot_Tool_View" style="rounded=0;whiteSpace=wrap;html=1;labelBackgroundColor=none;fillColor=#F2CC8F;strokeColor=#E07A5F;fontColor=#393C56;" vertex="1" parent="1">
          <mxGeometry x="827" y="404" width="110" height="50" as="geometry" />
        </mxCell>
        <mxCell id="FcdRBvqcY3o4qL-59N1J-46" value="" style="endArrow=none;dashed=1;html=1;dashPattern=1 3;strokeWidth=2;rounded=0;exitX=0.5;exitY=1;exitDx=0;exitDy=0;startArrow=none;labelBackgroundColor=none;strokeColor=#E07A5F;fontColor=default;entryX=0.812;entryY=1;entryDx=0;entryDy=0;entryPerimeter=0;" edge="1" parent="1" source="FcdRBvqcY3o4qL-59N1J-47" target="FcdRBvqcY3o4qL-59N1J-69">
          <mxGeometry width="50" height="50" relative="1" as="geometry">
            <mxPoint x="1177" y="590" as="sourcePoint" />
            <mxPoint x="882" y="630" as="targetPoint" />
          </mxGeometry>
        </mxCell>
        <mxCell id="FcdRBvqcY3o4qL-59N1J-47" value="" style="rounded=0;whiteSpace=wrap;html=1;labelBackgroundColor=none;fillColor=#F2CC8F;strokeColor=#E07A5F;fontColor=#393C56;" vertex="1" parent="1">
          <mxGeometry x="877" y="454" width="10" height="66" as="geometry" />
        </mxCell>
        <mxCell id="FcdRBvqcY3o4qL-59N1J-48" value="" style="endArrow=classic;html=1;rounded=0;exitX=1.2;exitY=0.658;exitDx=0;exitDy=0;exitPerimeter=0;entryX=0;entryY=0.073;entryDx=0;entryDy=0;entryPerimeter=0;labelBackgroundColor=none;strokeColor=#E07A5F;fontColor=default;" edge="1" parent="1">
          <mxGeometry width="50" height="50" relative="1" as="geometry">
            <mxPoint x="252" y="459.80999999999995" as="sourcePoint" />
            <mxPoint x="877" y="460.818" as="targetPoint" />
          </mxGeometry>
        </mxCell>
        <mxCell id="FcdRBvqcY3o4qL-59N1J-49" value="Visibility = True" style="edgeLabel;html=1;align=center;verticalAlign=middle;resizable=0;points=[];labelBackgroundColor=none;fontColor=#393C56;" vertex="1" connectable="0" parent="FcdRBvqcY3o4qL-59N1J-48">
          <mxGeometry x="-0.738" relative="1" as="geometry">
            <mxPoint x="-22" y="-7" as="offset" />
          </mxGeometry>
        </mxCell>
        <mxCell id="FcdRBvqcY3o4qL-59N1J-50" value="" style="endArrow=classic;html=1;rounded=0;exitX=0.9;exitY=0.819;exitDx=0;exitDy=0;exitPerimeter=0;entryX=-0.1;entryY=0.78;entryDx=0;entryDy=0;entryPerimeter=0;labelBackgroundColor=none;strokeColor=#E07A5F;fontColor=default;" edge="1" parent="1" source="FcdRBvqcY3o4qL-59N1J-26" target="FcdRBvqcY3o4qL-59N1J-10">
          <mxGeometry width="50" height="50" relative="1" as="geometry">
            <mxPoint x="390" y="440" as="sourcePoint" />
            <mxPoint x="440" y="390" as="targetPoint" />
          </mxGeometry>
        </mxCell>
        <mxCell id="FcdRBvqcY3o4qL-59N1J-51" value="Enters dfName, col1, &lt;br&gt;col2, breathNumber&amp;nbsp;&lt;br&gt;&lt;br&gt;Taps plot Button" style="edgeLabel;html=1;align=center;verticalAlign=middle;resizable=0;points=[];labelBackgroundColor=none;fontColor=#393C56;" vertex="1" connectable="0" parent="FcdRBvqcY3o4qL-59N1J-50">
          <mxGeometry x="-0.7998" y="-3" relative="1" as="geometry">
            <mxPoint x="72" y="-6" as="offset" />
          </mxGeometry>
        </mxCell>
        <mxCell id="FcdRBvqcY3o4qL-59N1J-56" value="" style="endArrow=classic;html=1;rounded=0;entryX=-0.1;entryY=0.948;entryDx=0;entryDy=0;entryPerimeter=0;exitX=1.2;exitY=0.892;exitDx=0;exitDy=0;exitPerimeter=0;labelBackgroundColor=none;strokeColor=#E07A5F;fontColor=default;" edge="1" parent="1">
          <mxGeometry width="50" height="50" relative="1" as="geometry">
            <mxPoint x="252" y="513.94" as="sourcePoint" />
            <mxPoint x="876" y="515.9680000000001" as="targetPoint" />
          </mxGeometry>
        </mxCell>
        <mxCell id="FcdRBvqcY3o4qL-59N1J-58" value="Visibility = False" style="edgeLabel;html=1;align=center;verticalAlign=middle;resizable=0;points=[];labelBackgroundColor=none;fontColor=#393C56;" vertex="1" connectable="0" parent="FcdRBvqcY3o4qL-59N1J-56">
          <mxGeometry x="-0.8307" relative="1" as="geometry">
            <mxPoint y="-7" as="offset" />
          </mxGeometry>
        </mxCell>
        <mxCell id="FcdRBvqcY3o4qL-59N1J-59" value="Canvas_View" style="rounded=0;whiteSpace=wrap;html=1;labelBackgroundColor=none;fillColor=#F2CC8F;strokeColor=#E07A5F;fontColor=#393C56;" vertex="1" parent="1">
          <mxGeometry x="960" y="519" width="110" height="50" as="geometry" />
        </mxCell>
        <mxCell id="FcdRBvqcY3o4qL-59N1J-60" value="" style="endArrow=none;dashed=1;html=1;dashPattern=1 3;strokeWidth=2;rounded=0;exitX=0.5;exitY=1;exitDx=0;exitDy=0;startArrow=none;labelBackgroundColor=none;strokeColor=#E07A5F;fontColor=default;" edge="1" parent="1" source="FcdRBvqcY3o4qL-59N1J-61">
          <mxGeometry width="50" height="50" relative="1" as="geometry">
            <mxPoint x="1310" y="710" as="sourcePoint" />
            <mxPoint x="1015" y="630" as="targetPoint" />
          </mxGeometry>
        </mxCell>
        <mxCell id="FcdRBvqcY3o4qL-59N1J-61" value="" style="rounded=0;whiteSpace=wrap;html=1;labelBackgroundColor=none;fillColor=#F2CC8F;strokeColor=#E07A5F;fontColor=#393C56;" vertex="1" parent="1">
          <mxGeometry x="1010" y="569" width="10" height="51" as="geometry" />
        </mxCell>
        <mxCell id="FcdRBvqcY3o4qL-59N1J-62" value="" style="endArrow=classic;html=1;rounded=0;entryX=0;entryY=0.25;entryDx=0;entryDy=0;exitX=1.1;exitY=0.93;exitDx=0;exitDy=0;exitPerimeter=0;labelBackgroundColor=none;strokeColor=#E07A5F;fontColor=default;" edge="1" parent="1" source="FcdRBvqcY3o4qL-59N1J-10" target="FcdRBvqcY3o4qL-59N1J-61">
          <mxGeometry width="50" height="50" relative="1" as="geometry">
            <mxPoint x="250" y="610" as="sourcePoint" />
            <mxPoint x="440" y="370" as="targetPoint" />
          </mxGeometry>
        </mxCell>
        <mxCell id="FcdRBvqcY3o4qL-59N1J-63" value="Visibility = True" style="edgeLabel;html=1;align=center;verticalAlign=middle;resizable=0;points=[];labelBackgroundColor=none;fontColor=#393C56;" vertex="1" connectable="0" parent="FcdRBvqcY3o4qL-59N1J-62">
          <mxGeometry x="-0.8469" y="-3" relative="1" as="geometry">
            <mxPoint y="-9" as="offset" />
          </mxGeometry>
        </mxCell>
        <mxCell id="FcdRBvqcY3o4qL-59N1J-65" value="" style="endArrow=none;dashed=1;html=1;dashPattern=1 3;strokeWidth=2;rounded=0;exitX=0.5;exitY=1;exitDx=0;exitDy=0;labelBackgroundColor=none;strokeColor=#E07A5F;fontColor=default;entryX=0.212;entryY=1.002;entryDx=0;entryDy=0;entryPerimeter=0;" edge="1" parent="1" source="FcdRBvqcY3o4qL-59N1J-10" target="FcdRBvqcY3o4qL-59N1J-69">
          <mxGeometry width="50" height="50" relative="1" as="geometry">
            <mxPoint x="600" y="500" as="sourcePoint" />
            <mxPoint x="245" y="640" as="targetPoint" />
          </mxGeometry>
        </mxCell>
        <mxCell id="FcdRBvqcY3o4qL-59N1J-66" value="" style="endArrow=none;dashed=1;html=1;dashPattern=1 3;strokeWidth=2;rounded=0;exitX=0.5;exitY=1;exitDx=0;exitDy=0;labelBackgroundColor=none;strokeColor=#E07A5F;fontColor=default;" edge="1" parent="1" source="FcdRBvqcY3o4qL-59N1J-26">
          <mxGeometry width="50" height="50" relative="1" as="geometry">
            <mxPoint x="600" y="500" as="sourcePoint" />
            <mxPoint x="45" y="630" as="targetPoint" />
          </mxGeometry>
        </mxCell>
        <mxCell id="FcdRBvqcY3o4qL-59N1J-68" value="Typical use case for the PatientDataManager tool" style="rounded=1;whiteSpace=wrap;html=1;labelBackgroundColor=none;fillColor=#F2CC8F;strokeColor=#E07A5F;fontColor=#393C56;" vertex="1" parent="1">
          <mxGeometry x="20" y="10" width="1060" height="20" as="geometry" />
        </mxCell>
        <mxCell id="FcdRBvqcY3o4qL-59N1J-75" value="" style="endArrow=classic;html=1;rounded=0;strokeColor=#E07A5F;fontColor=#393C56;fillColor=#F2CC8F;exitX=0.9;exitY=0.78;exitDx=0;exitDy=0;exitPerimeter=0;entryX=0;entryY=0.768;entryDx=0;entryDy=0;entryPerimeter=0;" edge="1" parent="1">
          <mxGeometry width="50" height="50" relative="1" as="geometry">
            <mxPoint x="250" y="600" as="sourcePoint" />
            <mxPoint x="531" y="600" as="targetPoint" />
            <Array as="points">
              <mxPoint x="441" y="600" />
            </Array>
          </mxGeometry>
        </mxCell>
        <mxCell id="FcdRBvqcY3o4qL-59N1J-76" value="Call sub_Plotter()" style="edgeLabel;html=1;align=center;verticalAlign=middle;resizable=0;points=[];fontColor=#393C56;" vertex="1" connectable="0" parent="FcdRBvqcY3o4qL-59N1J-75">
          <mxGeometry x="0.438" y="2" relative="1" as="geometry">
            <mxPoint x="-122" as="offset" />
          </mxGeometry>
        </mxCell>
        <mxCell id="FcdRBvqcY3o4qL-59N1J-77" value="set Canvas" style="endArrow=classic;html=1;rounded=0;strokeColor=#E07A5F;fontColor=#393C56;fillColor=#F2CC8F;exitX=1.2;exitY=0.942;exitDx=0;exitDy=0;exitPerimeter=0;entryX=0;entryY=0.5;entryDx=0;entryDy=0;" edge="1" parent="1" source="FcdRBvqcY3o4qL-59N1J-28">
          <mxGeometry width="50" height="50" relative="1" as="geometry">
            <mxPoint x="540" y="606.932" as="sourcePoint" />
            <mxPoint x="1010" y="601.5" as="targetPoint" />
          </mxGeometry>
        </mxCell>
      </root>
    </mxGraphModel>
  </diagram>
</mxfile>
